<svg xmlns="http://www.w3.org/2000/svg" viewBox="0 0 179.875 179.588"><defs><style>.a{fill:#25377e;}.b{fill:#4dad29;}</style></defs><g transform="translate(-950.875 -230.425)"><path class="a" d="M61.189,96.266v48.455h-9.42v9.762H87.432v-9.762H78.016V96.266a41.216,41.216,0,1,0-16.827,0Zm23.089,51.607v3.459H54.921v-3.459Zm-19.937-3.156V96.84c.372.048.748.071,1.124.109.311.032.618.067.931.09,1.038.082,2.078.134,3.12.137.029,0,.057,0,.086,0s.057,0,.086,0c1.042,0,2.082-.055,3.118-.137.311-.025.62-.059.929-.09.376-.038.752-.061,1.126-.109v47.877H64.341ZM69.6,17.9a38.057,38.057,0,0,1,6.558,75.546,37.578,37.578,0,0,1-9.859.435c-1.095-.1-2.183-.242-3.257-.435l-.025,0A38.057,38.057,0,0,1,69.6,17.9Z" transform="translate(970.989 235.602)"/><path class="a" d="M49.816,58.854a3.465,3.465,0,1,0,3.465,3.465A3.47,3.47,0,0,0,49.816,58.854Zm-.311,3.465a.313.313,0,0,1,.626,0C50.129,62.664,49.505,62.664,49.505,62.319Z" transform="translate(990.773 284.172)"/><path class="a" d="M49.816,64.4a3.464,3.464,0,1,0,3.465,3.465A3.47,3.47,0,0,0,49.816,64.4Zm-.311,3.465a.313.313,0,1,1,.626,0C50.129,68.206,49.505,68.206,49.505,67.861Z" transform="translate(990.773 290.275)"/><path class="a" d="M49.816,69.938A3.465,3.465,0,1,0,53.281,73.4,3.47,3.47,0,0,0,49.816,69.938ZM49.505,73.4a.313.313,0,0,1,.626,0C50.129,73.748,49.505,73.748,49.505,73.4Z" transform="translate(990.773 296.378)"/><path class="b" d="M30.7,95.672a4.711,4.711,0,1,0-4.711-4.711A4.717,4.717,0,0,0,30.7,95.672Zm0-8.371a3.66,3.66,0,1,1-3.66,3.66A3.666,3.666,0,0,1,30.7,87.3Z" transform="translate(968.347 314.342)"/><path class="a" d="M12.046,27.812,9.961,32.031l-4.656.677,3.37,3.284L7.881,40.63l4.165-2.19,4.165,2.19-.794-4.637,3.37-3.284-4.659-.677Zm2.24,7.812.527,3.085-2.769-1.454L9.274,38.709,9.8,35.624l-2.24-2.185,3.1-.45,1.385-2.805,1.385,2.805,3.1.45Z" transform="translate(945.571 249.986)"/><path class="a" d="M27.856,15.667l2.875-1.511L33.6,15.667l-.548-3.2L35.382,10.2l-3.215-.469L30.73,6.819,29.293,9.731l-3.215.469L28.4,12.467Zm.479-4.736,1.656-.24.74-1.5.74,1.5,1.656.24-1.2,1.168.282,1.647-1.479-.777-1.479.777.282-1.647Z" transform="translate(968.447 226.868)"/><path class="b" d="M84.874,69.839,87.2,72.106l-.548,3.2L89.526,73.8,92.4,75.306l-.548-3.2,2.326-2.267-3.215-.469-1.437-2.912L88.089,69.37Zm4.65-1.007.74,1.5,1.656.24-1.2,1.168L91,73.386l-1.479-.777-1.479.777.282-1.647-1.2-1.168,1.656-.24Z" transform="translate(1033.197 292.545)"/><path class="b" d="M91.295,14.135,89.4,19.97H83.266l4.961,3.608-1.9,5.833,4.963-3.606,4.963,3.606-1.9-5.833,4.961-3.608H93.19Zm1.832,9.042,1.133,3.484-2.965-2.154L88.33,26.661l1.133-3.484L86.5,21.021h3.667L91.3,17.535l1.133,3.486H96.1Z" transform="translate(1031.426 234.924)"/><path class="a" d="M81.6,5.267a4.711,4.711,0,1,0,4.711,4.711A4.717,4.717,0,0,0,81.6,5.267Zm0,8.371a3.66,3.66,0,1,1,3.66-3.66A3.666,3.666,0,0,1,81.6,13.638Z" transform="translate(1024.403 225.158)"/><path class="a" d="M86.837,50.953A3.753,3.753,0,1,0,90.592,47.2,3.757,3.757,0,0,0,86.837,50.953Zm3.755-2.7a2.7,2.7,0,1,1-2.7,2.7A2.706,2.706,0,0,1,90.592,48.251Z" transform="translate(1035.359 271.338)"/><path class="b" d="M17.558,14.794a4.961,4.961,0,1,0,4.961,4.961A4.966,4.966,0,0,0,17.558,14.794Zm0,8.872a3.91,3.91,0,1,1,3.91-3.91A3.915,3.915,0,0,1,17.558,23.666Z" transform="translate(953.601 235.65)"/><path class="a" d="M21.984,89.047c.685.174,1.376.328,2.076.469l.208-1.03q-1.024-.2-2.026-.456Z" transform="translate(963.938 316.302)"/><path class="a" d="M10.431,79l-.9.538c.712,1.191,1.494,2.362,2.32,3.478l.845-.624C11.89,81.3,11.129,80.159,10.431,79Z" transform="translate(950.223 306.354)"/><path class="a" d="M15.551,85c-1-.914-1.973-1.885-2.879-2.889l-.78.7c.927,1.03,1.921,2.026,2.95,2.963Z" transform="translate(952.826 309.786)"/><path class="a" d="M18.241,87.67c1.254.595,2.555,1.135,3.862,1.6l.355-.99c-1.275-.456-2.543-.983-3.768-1.563Z" transform="translate(959.817 314.859)"/><path class="a" d="M10.382,79.259c-.582-1.229-1.107-2.5-1.561-3.765l-.99.355c.466,1.3,1,2.6,1.6,3.86Z" transform="translate(948.352 302.496)"/><path class="a" d="M6.646,69.963q0,1.034.05,2.059l1.049-.05q-.047-1-.048-2.009,0-1.031.05-2.07L6.7,67.843C6.665,68.551,6.646,69.259,6.646,69.963Z" transform="translate(947.047 294.071)"/><path class="a" d="M6.865,71.89c.2,1.372.479,2.751.815,4.1L8.7,75.731c-.33-1.313-.6-2.658-.8-3.994Z" transform="translate(947.289 298.359)"/><path class="a" d="M18.849,86.993c-1.158-.7-2.3-1.46-3.387-2.271l-.628.843c1.118.832,2.286,1.616,3.473,2.328Z" transform="translate(956.063 312.659)"/><path class="a" d="M6.87,66.948l1.038.153q.151-1.021.357-2.045l-1.03-.206C7.1,65.551,6.973,66.248,6.87,66.948Z" transform="translate(947.294 290.776)"/><path class="a" d="M90.348,76.022,89.3,76q-.022,1.04-.116,2.061l1.046.1C90.294,77.453,90.334,76.743,90.348,76.022Z" transform="translate(1037.941 303.055)"/><path class="a" d="M86.209,86.217a28.715,28.715,0,0,1-3.7,2.574l.53.908a29.586,29.586,0,0,0,3.837-2.669Z" transform="translate(1030.595 314.305)"/><path class="a" d="M88.122,83.362l.964.418A29.343,29.343,0,0,0,90.6,79.36L89.585,79.1A28.751,28.751,0,0,1,88.122,83.362Z" transform="translate(1036.774 306.466)"/><path class="a" d="M86.6,87.313a30.012,30.012,0,0,0,2.82-3.726l-.885-.567a28.825,28.825,0,0,1-2.721,3.593Z" transform="translate(1034.237 310.785)"/><path class="a" d="M82.842,88.373a28.543,28.543,0,0,1-4.318,1.288l.219,1.028a29.378,29.378,0,0,0,4.478-1.336Z" transform="translate(1026.204 316.679)"/><path class="a" d="M75.42,89.3,75.4,90.347q.3.006.605.006.772,0,1.534-.04l-.053-1.049C76.8,89.3,76.116,89.315,75.42,89.3Z" transform="translate(1022.763 317.662)"/><rect class="a" width="1.051" height="4.203" transform="translate(1125.426 278.985)"/><rect class="a" width="1.051" height="4.203" transform="translate(1125.426 295.796)"/><rect class="a" width="1.051" height="4.203" transform="translate(1125.426 287.391)"/><rect class="a" width="1.051" height="4.203" transform="translate(1125.426 304.201)"/></g></svg>