<svg xmlns="http://www.w3.org/2000/svg" viewBox="0 0 57.686 57.411"><defs><style>.a{fill:#25377e;}.b{fill:#4dad29;}</style></defs><g transform="translate(-1011.672 -262.635)"><path class="a" d="M26.22,0A13.11,13.11,0,0,1,13.11,13.11,13.11,13.11,0,0,1,0,0" transform="matrix(0.97, 0.242, -0.242, 0.97, 1014.844, 284.616)"/><path class="a" d="M26.22,0A13.11,13.11,0,0,1,13.11,13.11,13.11,13.11,0,0,1,0,0" transform="matrix(-0.97, -0.242, 0.242, -0.97, 1066.186, 297.521)"/><path class="b" d="M26.22,0A13.11,13.11,0,0,1,13.11,13.11,13.11,13.11,0,0,1,0,0" transform="matrix(0.242, -0.97, 0.97, 0.242, 1033.864, 316.875)"/><path class="b" d="M26.22,0A13.11,13.11,0,0,1,13.11,13.11,13.11,13.11,0,0,1,0,0" transform="matrix(-0.242, 0.97, -0.97, -0.242, 1047.197, 265.806)"/></g></svg>