<svg xmlns="http://www.w3.org/2000/svg" viewBox="0 0 153.803 165.644"><defs><style>.a{opacity:0.93;}.b{fill:#fff;}</style></defs><g class="a" transform="translate(-4 -3.996)"><path class="b" d="M140.057,27.669a17.628,17.628,0,0,0-5.915,1.035V27.669A17.767,17.767,0,0,0,116.395,9.922a18.246,18.246,0,0,0-8.713,2.958,17.888,17.888,0,0,0-32.695,4.227,14.472,14.472,0,0,0-5.915-1.269A17.767,17.767,0,0,0,51.325,33.584V89.228a56.061,56.061,0,0,0-23.662-5.362C16.577,84.292,4,92.9,4,104.57a18.767,18.767,0,0,0,10.7,17.155c26.643,14.833,42.541,30.518,42.541,42a5.915,5.915,0,0,0,11.831,0c0-20.967-26.484-40.119-48.8-52.5a8.285,8.285,0,0,0-.837-.337,7.217,7.217,0,0,1-3.6-6.321c0-4.091,5.972-8.648,11.831-8.873,7.832-.24,18.246,3.65,26.62,8.873a5.759,5.759,0,0,0,5.915,0,7.1,7.1,0,0,0,2.958-5.915V33.584a5.915,5.915,0,0,1,11.831,0V74.993a5.915,5.915,0,1,0,11.831,0V21.753a5.915,5.915,0,1,1,11.831,0V74.993a5.915,5.915,0,1,0,11.831,0V27.669a5.915,5.915,0,1,1,11.831,0V74.993a5.915,5.915,0,1,0,11.831,0V45.415a5.915,5.915,0,1,1,11.831,0v76.9a35.531,35.531,0,0,1-35.493,35.493H86.817a5.915,5.915,0,1,0,0,11.831h23.662A47.377,47.377,0,0,0,157.8,122.316v-76.9a17.767,17.767,0,0,0-17.746-17.746Z" transform="translate(0 0)"/></g></svg>