<svg xmlns="http://www.w3.org/2000/svg" viewBox="0 0 27.543 27.741"><defs><style>.a{fill:#4dad29;}.b{fill:#25377e;}</style></defs><g transform="translate(834.922 -698.016) rotate(112)"><path class="a" d="M12.5,0A6.251,6.251,0,0,1,6.251,6.251,6.251,6.251,0,0,1,0,0" transform="matrix(0.97, 0.242, -0.242, 0.97, 955.372, 491.489)"/><path class="a" d="M12.5,0A6.251,6.251,0,0,1,6.251,6.251,6.251,6.251,0,0,1,0,0" transform="matrix(-0.97, -0.242, 0.242, -0.97, 979.853, 497.642)"/><path class="b" d="M12.5,0A6.251,6.251,0,0,1,6.251,6.251,6.251,6.251,0,0,1,0,0" transform="matrix(0.242, -0.97, 0.97, 0.242, 964.441, 506.87)"/><path class="b" d="M12.5,0A6.251,6.251,0,0,1,6.251,6.251,6.251,6.251,0,0,1,0,0" transform="matrix(-0.242, 0.97, -0.97, -0.242, 970.798, 482.52)"/></g></svg>